<svg width="0" height="0" version="1.1" xmlns="http://www.w3.org/2000/svg">
  <symbol viewBox="0 0 20 23" id="tik-tok-icon">
    <path d="M19.0541 5.93278C17.8245 5.93278 16.69 5.52543 15.7789 4.83824C14.734 4.05047 13.9833 2.89491 13.7182 1.56302C13.6525 1.23394 13.6172 0.894341 13.6138 0.546326H10.1012V10.1443L10.097 15.4016C10.097 16.8071 9.18176 17.9989 7.91299 18.418C7.54478 18.5396 7.14711 18.5973 6.73302 18.5746C6.20448 18.5455 5.70917 18.386 5.27868 18.1285C4.36256 17.5806 3.74143 16.5866 3.7246 15.4496C3.69809 13.6725 5.13476 12.2236 6.91061 12.2236C7.26115 12.2236 7.5978 12.2808 7.91299 12.3848V9.76138V8.81833C7.58055 8.76909 7.24221 8.74342 6.90009 8.74342C4.95633 8.74342 3.1384 9.55139 1.83892 11.007C0.85673 12.107 0.267585 13.5104 0.176689 14.982C0.0575975 16.9153 0.764991 18.753 2.13686 20.1089C2.33843 20.3079 2.5501 20.4926 2.77145 20.6631C3.94763 21.5682 5.38557 22.0589 6.90009 22.0589C7.24221 22.0589 7.58055 22.0337 7.91299 21.9844C9.32778 21.7749 10.6332 21.1272 11.6633 20.1089C12.9291 18.8578 13.6285 17.1968 13.6361 15.4289L13.618 7.57818C14.2219 8.04402 14.8821 8.42949 15.5908 8.72869C16.6929 9.1937 17.8615 9.42935 19.0642 9.42893V6.87836V5.93194C19.0651 5.93278 19.055 5.93278 19.0541 5.93278Z" fill="#36BA5F"></path>
  </symbol>
  <symbol viewBox="0 0 11 24" id="facebook-icon">
    <path d="M10.5573 11.9766H7.29462V23.9996H2.35138V11.9766H0.000366211V7.75125H2.35138V5.01696C2.35138 3.06166 3.27478 -0.000152588 7.33862 -0.000152588L11.0002 0.0152561V4.11668H8.3435C7.90771 4.11668 7.29494 4.33569 7.29494 5.26843V7.75518H10.9892L10.5573 11.9766Z" fill="#36BA5F"></path>
  </symbol>
  <symbol viewBox="0 0 14 11" id="email">
    <path d="M14 2.85408V8.88461C14 9.44565 13.7695 9.98371 13.3593 10.3804C12.9491 10.7771 12.3927 11 11.8125 11H2.1875C1.60734 11 1.05094 10.7771 0.640704 10.3804C0.230468 9.98371 0 9.44565 0 8.88461V2.85408L6.77775 6.71085C6.84508 6.74925 6.92183 6.7695 7 6.7695C7.07817 6.7695 7.15492 6.74925 7.22225 6.71085L14 2.85408ZM11.8125 2.61907e-08C12.3508 -8.18366e-05 12.8701 0.191744 13.2713 0.53878C13.6725 0.885816 13.9272 1.3637 13.9869 1.881L7 5.85538L0.0131251 1.881C0.0727635 1.3637 0.327533 0.885816 0.728696 0.53878C1.12986 0.191744 1.64925 -8.18366e-05 2.1875 2.61907e-08H11.8125Z" fill="#1A1A1A"></path>
  </symbol>
  <symbol viewBox="0 0 14 13" id="chat">
    <path fill-rule="evenodd" clip-rule="evenodd" d="M14 6.09459C14 9.46054 10.8658 12.1892 7 12.1892C6.3067 12.1901 5.61626 12.1005 4.94637 11.9228C4.43537 12.1805 3.262 12.675 1.288 12.9971C1.113 13.025 0.98 12.8439 1.04912 12.682C1.35887 11.9541 1.63888 10.9842 1.72287 10.0996C0.651 9.02869 0 7.62694 0 6.09459C0 2.72863 3.13425 0 7 0C10.8658 0 14 2.72863 14 6.09459ZM4.375 6.09459C4.375 6.3255 4.28281 6.54695 4.11872 6.71023C3.95462 6.87351 3.73206 6.96524 3.5 6.96524C3.26794 6.96524 3.04538 6.87351 2.88128 6.71023C2.71719 6.54695 2.625 6.3255 2.625 6.09459C2.625 5.86367 2.71719 5.64222 2.88128 5.47894C3.04538 5.31566 3.26794 5.22393 3.5 5.22393C3.73206 5.22393 3.95462 5.31566 4.11872 5.47894C4.28281 5.64222 4.375 5.86367 4.375 6.09459ZM7.875 6.09459C7.875 6.3255 7.78281 6.54695 7.61872 6.71023C7.45462 6.87351 7.23206 6.96524 7 6.96524C6.76794 6.96524 6.54538 6.87351 6.38128 6.71023C6.21719 6.54695 6.125 6.3255 6.125 6.09459C6.125 5.86367 6.21719 5.64222 6.38128 5.47894C6.54538 5.31566 6.76794 5.22393 7 5.22393C7.23206 5.22393 7.45462 5.31566 7.61872 5.47894C7.78281 5.64222 7.875 5.86367 7.875 6.09459ZM10.5 6.96524C10.7321 6.96524 10.9546 6.87351 11.1187 6.71023C11.2828 6.54695 11.375 6.3255 11.375 6.09459C11.375 5.86367 11.2828 5.64222 11.1187 5.47894C10.9546 5.31566 10.7321 5.22393 10.5 5.22393C10.2679 5.22393 10.0454 5.31566 9.88128 5.47894C9.71719 5.64222 9.625 5.86367 9.625 6.09459C9.625 6.3255 9.71719 6.54695 9.88128 6.71023C10.0454 6.87351 10.2679 6.96524 10.5 6.96524Z"></path>
  </symbol>
  <symbol  viewBox="0 0 24 19" id="twitter-icon">
    <path d="M23.3029 2.24153C22.4458 2.62158 21.5239 2.87862 20.557 2.99342C21.5442 2.40196 22.3018 1.46612 22.6594 0.349168C21.7357 0.897126 20.7121 1.29464 19.6237 1.5089C18.7517 0.580188 17.5092 -0.000213623 16.1334 -0.000213623C13.4938 -0.000213623 11.353 2.14064 11.353 4.78025C11.353 5.15495 11.3954 5.51966 11.4774 5.86975C7.50442 5.67046 3.98173 3.7674 1.62376 0.87431C1.21234 1.5802 0.97633 2.40196 0.97633 3.27791C0.97633 4.93605 1.82091 6.39989 3.10292 7.25694C2.31967 7.23234 1.58204 7.01737 0.937827 6.65836C0.937471 6.67868 0.93747 6.699 0.93747 6.71896C0.93747 9.03522 2.58598 10.9672 4.77247 11.406C4.37175 11.5158 3.94857 11.5739 3.51327 11.5739C3.20453 11.5739 2.90542 11.5444 2.61379 11.4887C3.222 13.3875 4.98709 14.7697 7.07946 14.8086C5.44307 16.0909 3.38207 16.855 1.14175 16.855C0.756719 16.855 0.375252 16.8325 0.00198364 16.7879C2.11646 18.1448 4.62986 18.9359 7.32937 18.9359C16.1224 18.9359 20.931 11.6517 20.931 5.33392C20.931 5.12678 20.9264 4.92036 20.9171 4.71573C21.8519 4.04192 22.6622 3.20019 23.3029 2.24153Z" fill="#36BA5F"></path>
  </symbol>
  <symbol  viewBox="0 0 14 14" id="phone">
    <path d="M12.894 2.55413L11.2138 0.875486C11.0953 0.75644 10.9544 0.661986 10.7993 0.597548C10.6441 0.53311 10.4778 0.49996 10.3098 0.5C9.96745 0.5 9.64562 0.634102 9.40424 0.875486L7.59625 2.6835C7.47721 2.80202 7.38276 2.9429 7.31832 3.09803C7.25388 3.25317 7.22073 3.41951 7.22077 3.5875C7.22077 3.92985 7.35487 4.2517 7.59625 4.49308L8.91832 5.81517C8.60885 6.49729 8.1786 7.11783 7.64831 7.64684C7.11936 8.17842 6.49889 8.61025 5.81667 8.9216L4.4946 7.59951C4.37608 7.48047 4.2352 7.38601 4.08007 7.32158C3.92493 7.25714 3.75859 7.22399 3.59061 7.22403C3.24826 7.22403 2.92642 7.35813 2.68504 7.59951L0.875481 9.40595C0.756291 9.52469 0.661757 9.66583 0.597317 9.82124C0.532877 9.97666 0.499804 10.1433 0.500001 10.3115C0.500001 10.6539 0.634101 10.9757 0.875481 11.2171L2.55252 12.8942C2.93746 13.2807 3.46913 13.5 4.015 13.5C4.13016 13.5 4.2406 13.4905 4.34946 13.4716C6.47612 13.1214 8.58544 11.9902 10.2877 10.2894C11.9884 8.59029 13.118 6.48252 13.473 4.34951C13.5803 3.69794 13.3641 3.02743 12.894 2.55413Z" fill="#1A1A1A"></path>
  </symbol>
  <symbol  viewBox="0 0 16 15" id="star">
    <path fill-rule="evenodd" clip-rule="evenodd" d="M10.8101 3.83127C10.4875 3.841 10.1801 3.69443 9.98451 3.4377L7.93552 0.747908C7.4055 0.0521323 6.3128 0.23425 6.03709 1.06431L4.97165 4.27197C4.86987 4.57839 4.6264 4.81682 4.31791 4.91216L1.03898 5.92556C0.156267 6.19837 -0.00636112 7.37764 0.769558 7.87919L3.45772 9.61681C3.74765 9.80421 3.92041 10.1279 3.91473 10.4731L3.86255 13.6432C3.84783 14.5372 4.85763 15.0665 5.58442 14.5458L8.46604 12.4813C8.71795 12.3008 9.0393 12.2473 9.33609 12.3364L12.7303 13.3559C13.5866 13.6131 14.3705 12.7851 14.0669 11.9442L12.9905 8.96207C12.8733 8.63735 12.9319 8.27514 13.1454 8.00391L15.1257 5.4889C15.6973 4.76304 15.1614 3.7001 14.2379 3.72794L10.8101 3.83127Z" fill="#1A1A1A"></path>
  </symbol>
  <symbol  viewBox="0 0 26 14" id="vk-icon">
    <path d="M23.1737 9.62652C25.1957 11.3914 25.616 12.0214 25.6847 12.1289C26.5226 13.4352 24.7555 13.5943 24.7555 13.5943H21.0315C21.0315 13.5943 20.1249 13.6041 19.3503 13.0993C18.0876 12.2862 16.7652 10.7098 15.836 10.9835C15.0559 11.2127 15.0631 12.2489 15.0631 13.1349C15.0631 13.4521 14.7856 13.5943 14.1593 13.5943C13.5329 13.5943 13.2725 13.5943 12.995 13.5943C10.955 13.5943 8.74134 12.9189 6.53314 10.6502C3.4093 7.44313 0.669615 0.982714 0.669615 0.982714C0.669615 0.982714 0.507819 0.657472 0.684077 0.459305C0.883837 0.237145 1.42707 0.265581 1.42707 0.265581L5.03811 0.264693C5.03811 0.264693 5.37797 0.327786 5.62202 0.496628C5.82359 0.635256 5.93567 0.90007 5.93567 0.90007C5.93567 0.90007 6.54218 2.8693 7.31501 4.12494C8.8245 6.57581 9.52682 6.63802 10.0393 6.37409C10.7877 5.99198 10.5437 3.38649 10.5437 3.38649C10.5437 3.38649 10.5771 2.26769 10.1867 1.76916C9.88566 1.38349 9.30989 1.17821 9.05861 1.14622C8.85523 1.12045 9.19509 0.770329 9.62806 0.570385C10.2065 0.317123 10.9938 0.252252 12.3515 0.264693C13.4081 0.274468 13.7127 0.336673 14.1249 0.42998C15.3714 0.712567 15.0631 1.45814 15.0631 4.07607C15.0631 4.91495 14.9456 6.09417 15.5892 6.48517C15.8667 6.65401 16.8176 6.86018 18.5097 4.15871C19.3132 2.87729 19.9523 0.751667 19.9523 0.751667C19.9523 0.751667 20.0842 0.517955 20.2894 0.402432C20.4991 0.284243 20.4928 0.286909 20.7802 0.286909C21.0677 0.286909 23.9502 0.264693 24.5829 0.264693C25.2147 0.264693 25.8077 0.257584 25.9098 0.621926C26.0562 1.14533 25.4434 2.93861 23.8905 4.88473C21.3388 8.0785 21.0559 7.77992 23.1737 9.62652Z" fill="#36BA5F"></path>
  </symbol>
  <symbol  viewBox="0 0 20 20" id="insta-icon">
    <path fill-rule="evenodd" clip-rule="evenodd" d="M0.203552 5.6447C0.203552 2.63815 2.64169 0.200012 5.64824 0.200012H14.3598C17.3663 0.200012 19.8044 2.63815 19.8044 5.6447V14.3562C19.8044 17.3628 17.3663 19.8009 14.3598 19.8009H5.64824C2.64169 19.8009 0.203552 17.3628 0.203552 14.3562V5.6447ZM17.6175 3.46669C17.6175 2.8656 17.1297 2.37775 16.5286 2.37775C15.9275 2.37775 15.4396 2.8656 15.4396 3.46669C15.4396 4.06778 15.9275 4.55563 16.5286 4.55563C17.1297 4.55563 17.6175 4.06778 17.6175 3.46669ZM10.0072 4.55581C13.0137 4.55581 15.4518 6.99394 15.4518 10.0005C15.4518 13.0071 13.0137 15.4452 10.0072 15.4452C7.0006 15.4452 4.56246 13.0071 4.56246 10.0005C4.56246 6.99394 7.0006 4.55581 10.0072 4.55581ZM6.73503 9.99931C6.73503 8.1951 8.19764 6.73249 10.0019 6.73249C11.8061 6.73249 13.2687 8.1951 13.2687 9.99931C13.2687 11.8035 11.8061 13.2661 10.0019 13.2661C8.19764 13.2661 6.73503 11.8035 6.73503 9.99931Z" fill="#36BA5F"></path>
  </symbol>
  <symbol  viewBox="0 0 36 36" id="ya-dzen-icon">
    <path fill-rule="evenodd" clip-rule="evenodd" d="M36.0009 18.1982V17.9993V17.8011C28.0305 17.5599 24.3857 17.3611 21.4787 14.5218C18.6402 11.6154 18.4405 7.97066 18.2 -0.00012207H18.001H17.8021C17.5616 7.97066 17.362 11.6154 14.5234 14.5218C11.6164 17.3611 7.97161 17.5599 0.00128174 17.8011V17.9993V18.1982C7.97161 18.4394 11.6164 18.6383 14.5234 21.4769C17.362 24.384 17.5616 28.0287 17.8021 35.9995H18.001H18.2C18.4405 28.0287 18.6402 24.384 21.4787 21.4769C24.3857 18.6383 28.0305 18.4394 36.0009 18.1982Z" fill="#36BA5F"></path>
  </symbol>
</svg>